<mxfile host="app.diagrams.net" modified="2024-06-11T15:09:52.331Z" agent="Mozilla/5.0 (Macintosh; Intel Mac OS X 10_15_7) AppleWebKit/537.36 (KHTML, like Gecko) Chrome/125.0.0.0 Safari/537.36" version="24.5.3" etag="23H425Ibut_oA-0esB1g" type="github">
  <diagram name="Page-1" id="v3DIZs_vgclBoJGY_y4J">
    <mxGraphModel>
      <root>
        <mxCell id="0" />
        <mxCell id="1" parent="0" />
      </root>
    </mxGraphModel>
  </diagram>
</mxfile>
